<svg width="36" height="36" viewBox="0 0 36 36" fill="none" xmlns="http://www.w3.org/2000/svg">
<path d="M35.1429 28.5743C34.6697 28.5743 34.2857 28.1903 34.2857 27.7172V21.3823C34.2857 12.1137 27.356 4.85316 18.5097 4.85316C9.40286 4.85316 1.71429 12.4223 1.71429 21.3823V27.7172C1.71429 28.1903 1.33029 28.5743 0.857143 28.5743C0.384 28.5743 0 28.1903 0 27.7172V21.3823C0 11.4932 8.47371 3.13831 18.504 3.13831C28.3177 3.13831 36 11.152 36 21.3823V27.7172C36 28.1903 35.616 28.5743 35.1429 28.5743Z" fill="black"/>
<path d="M33.7141 30.8611C33.7141 31.9657 32.8186 32.8617 31.7141 32.8617H28.8569C27.7524 32.8617 26.8569 31.9657 26.8569 30.8611V20.572C26.8569 19.4668 27.7524 18.5714 28.8569 18.5714H31.7141C32.8186 18.5714 33.7141 19.4668 33.7141 20.572V30.8611ZM31.9998 20.572C31.9998 20.4143 31.8718 20.2863 31.7141 20.2863H28.8569C28.6992 20.2863 28.5712 20.4143 28.5712 20.572V30.8611C28.5712 31.0188 28.6992 31.1468 28.8569 31.1468H31.7141C31.8718 31.1468 31.9998 31.0188 31.9998 30.8611V20.572Z" fill="black"/>
<path d="M9.71408 30.8611C9.71408 31.9657 8.81865 32.8617 7.71408 32.8617H4.85693C3.75236 32.8617 2.85693 31.9657 2.85693 30.8611V20.572C2.85693 19.4668 3.75236 18.5714 4.85693 18.5714H7.71408C8.81865 18.5714 9.71408 19.4668 9.71408 20.572V30.8611ZM7.99979 20.572C7.99979 20.4143 7.87179 20.2863 7.71408 20.2863H4.85693C4.69922 20.2863 4.57122 20.4143 4.57122 20.572V30.8611C4.57122 31.0188 4.69922 31.1468 4.85693 31.1468H7.71408C7.87179 31.1468 7.99979 31.0188 7.99979 30.8611V20.572Z" fill="black"/>
</svg>
