<svg width="36" height="36" viewBox="0 0 36 36" fill="none" xmlns="http://www.w3.org/2000/svg">
<path d="M34.4743 30.5789C32.3157 30.5789 30.1501 30.5789 27.9915 30.5789C23.5337 30.5789 19.0688 30.5789 14.611 30.5789C10.8845 30.5789 7.16494 30.5789 3.43838 30.5789C2.79853 30.5789 2.15869 30.5789 1.52588 30.5789C1.70166 30.7547 1.87744 30.9305 2.05322 31.1063C2.05322 27.8649 2.05322 24.6235 2.05322 21.3821C2.05322 18.8438 2.05322 16.3055 2.05322 13.7672C1.87744 13.943 1.70166 14.1188 1.52588 14.2946C3.68447 14.2946 5.8501 14.2946 8.00869 14.2946C12.4665 14.2946 16.9313 14.2946 21.3892 14.2946C25.1157 14.2946 28.8352 14.2946 32.5618 14.2946C33.2017 14.2946 33.8415 14.2946 34.4743 14.2946C34.2985 14.1188 34.1227 13.943 33.947 13.7672C33.947 17.0086 33.947 20.25 33.947 23.4914C33.947 26.0297 33.947 28.568 33.947 31.1063C33.947 31.7883 35.0017 31.7883 35.0017 31.1063C35.0017 27.8649 35.0017 24.6235 35.0017 21.3821C35.0017 18.8438 35.0017 16.3055 35.0017 13.7672C35.0017 13.4789 34.7626 13.2399 34.4743 13.2399C32.3157 13.2399 30.1501 13.2399 27.9915 13.2399C23.5337 13.2399 19.0688 13.2399 14.611 13.2399C10.8845 13.2399 7.16494 13.2399 3.43838 13.2399C2.79853 13.2399 2.15869 13.2399 1.52588 13.2399C1.2376 13.2399 0.998535 13.4789 0.998535 13.7672C0.998535 17.0086 0.998535 20.25 0.998535 23.4914C0.998535 26.0297 0.998535 28.568 0.998535 31.1063C0.998535 31.3946 1.2376 31.6336 1.52588 31.6336C3.68447 31.6336 5.8501 31.6336 8.00869 31.6336C12.4665 31.6336 16.9313 31.6336 21.3892 31.6336C25.1157 31.6336 28.8352 31.6336 32.5618 31.6336C33.2017 31.6336 33.8415 31.6336 34.4743 31.6336C35.1563 31.6336 35.1563 30.5789 34.4743 30.5789Z" fill="black"/>
<path d="M34.4743 30.5789C32.3157 30.5789 30.1501 30.5789 27.9915 30.5789C23.5337 30.5789 19.0688 30.5789 14.611 30.5789C10.8845 30.5789 7.16494 30.5789 3.43838 30.5789C2.79853 30.5789 2.15869 30.5789 1.52588 30.5789C1.70166 30.7547 1.87744 30.9305 2.05322 31.1063C2.05322 27.6047 2.05322 24.0961 2.05322 20.5946C2.05322 20.1446 2.05322 19.7016 2.05322 19.2516C1.87744 19.4274 1.70166 19.6031 1.52588 19.7789C3.68447 19.7789 5.8501 19.7789 8.00869 19.7789C12.4665 19.7789 16.9313 19.7789 21.3892 19.7789C25.1157 19.7789 28.8352 19.7789 32.5618 19.7789C33.2017 19.7789 33.8415 19.7789 34.4743 19.7789C34.2985 19.6031 34.1227 19.4274 33.947 19.2516C33.947 22.7531 33.947 26.2617 33.947 29.7633C33.947 30.2133 33.947 30.6563 33.947 31.1063C33.947 31.7883 35.0017 31.7883 35.0017 31.1063C35.0017 27.6047 35.0017 24.0961 35.0017 20.5946C35.0017 20.1446 35.0017 19.7016 35.0017 19.2516C35.0017 18.9633 34.7626 18.7242 34.4743 18.7242C32.3157 18.7242 30.1501 18.7242 27.9915 18.7242C23.5337 18.7242 19.0688 18.7242 14.611 18.7242C10.8845 18.7242 7.16494 18.7242 3.43838 18.7242C2.79853 18.7242 2.15869 18.7242 1.52588 18.7242C1.2376 18.7242 0.998535 18.9633 0.998535 19.2516C0.998535 22.7531 0.998535 26.2617 0.998535 29.7633C0.998535 30.2133 0.998535 30.6563 0.998535 31.1063C0.998535 31.3946 1.2376 31.6336 1.52588 31.6336C3.68447 31.6336 5.8501 31.6336 8.00869 31.6336C12.4665 31.6336 16.9313 31.6336 21.3892 31.6336C25.1157 31.6336 28.8352 31.6336 32.5618 31.6336C33.2017 31.6336 33.8415 31.6336 34.4743 31.6336C35.1563 31.6336 35.1563 30.5789 34.4743 30.5789Z" fill="black"/>
<path d="M11.5454 13.7673C11.5454 17.0087 11.5454 20.2501 11.5454 23.4915C11.5454 26.0298 11.5454 28.568 11.5454 31.1063C11.5454 31.7883 12.6001 31.7883 12.6001 31.1063C12.6001 27.8649 12.6001 24.6235 12.6001 21.3821C12.6001 18.8438 12.6001 16.3055 12.6001 13.7673C12.6001 13.0852 11.5454 13.0852 11.5454 13.7673Z" fill="black"/>
<path d="M34.4745 30.5789C31.6479 30.5789 28.8214 30.5789 25.9878 30.5789C21.8815 30.5789 17.7683 30.5789 13.662 30.5789C13.1276 30.5789 12.6003 30.5789 12.0659 30.5789C12.2417 30.7547 12.4175 30.9305 12.5933 31.1063C12.5933 27.6047 12.5933 24.0961 12.5933 20.5946C12.5933 20.1446 12.5933 19.7016 12.5933 19.2516C12.4175 19.4274 12.2417 19.6031 12.0659 19.7789C14.8925 19.7789 17.719 19.7789 20.5526 19.7789C24.6589 19.7789 28.7722 19.7789 32.8784 19.7789C33.4128 19.7789 33.9401 19.7789 34.4745 19.7789C34.2987 19.6031 34.1229 19.4274 33.9472 19.2516C33.9472 22.7531 33.9472 26.2617 33.9472 29.7633C33.9472 30.2133 33.9472 30.6563 33.9472 31.1063C33.9472 31.7883 35.0019 31.7883 35.0019 31.1063C35.0019 27.6047 35.0019 24.0961 35.0019 20.5946C35.0019 20.1446 35.0019 19.7016 35.0019 19.2516C35.0019 18.9633 34.7628 18.7242 34.4745 18.7242C31.6479 18.7242 28.8214 18.7242 25.9878 18.7242C21.8815 18.7242 17.7683 18.7242 13.662 18.7242C13.1276 18.7242 12.6003 18.7242 12.0659 18.7242C11.7776 18.7242 11.5386 18.9633 11.5386 19.2516C11.5386 22.7531 11.5386 26.2617 11.5386 29.7633C11.5386 30.2133 11.5386 30.6563 11.5386 31.1063C11.5386 31.3946 11.7776 31.6336 12.0659 31.6336C14.8925 31.6336 17.719 31.6336 20.5526 31.6336C24.6589 31.6336 28.7722 31.6336 32.8784 31.6336C33.4128 31.6336 33.9401 31.6336 34.4745 31.6336C35.1565 31.6336 35.1565 30.5789 34.4745 30.5789Z" fill="black"/>
<path d="M22.7461 19.2516C22.7461 22.7532 22.7461 26.2618 22.7461 29.7634C22.7461 30.2134 22.7461 30.6563 22.7461 31.1063C22.7461 31.7884 23.8008 31.7884 23.8008 31.1063C23.8008 27.6048 23.8008 24.0962 23.8008 20.5946C23.8008 20.1446 23.8008 19.7016 23.8008 19.2516C23.8008 18.5696 22.7461 18.5696 22.7461 19.2516Z" fill="black"/>
<path d="M21.7479 17.093C22.7674 17.093 23.7869 17.093 24.8065 17.093C25.4885 17.093 25.4885 16.0383 24.8065 16.0383C23.7869 16.0383 22.7674 16.0383 21.7479 16.0383C21.0658 16.0383 21.0658 17.093 21.7479 17.093Z" fill="black"/>
<path d="M34.4745 18.7242C31.6479 18.7242 28.8214 18.7242 25.9878 18.7242C21.8815 18.7242 17.7683 18.7242 13.662 18.7242C13.1276 18.7242 12.6003 18.7242 12.0659 18.7242C12.2417 18.9 12.4175 19.0758 12.5933 19.2516C12.5933 17.4235 12.5933 15.5953 12.5933 13.7672C12.4175 13.943 12.2417 14.1188 12.0659 14.2946C14.8925 14.2946 17.719 14.2946 20.5526 14.2946C24.6589 14.2946 28.7722 14.2946 32.8784 14.2946C33.4128 14.2946 33.9401 14.2946 34.4745 14.2946C34.2987 14.1188 34.1229 13.943 33.9472 13.7672C33.9472 15.5953 33.9472 17.4235 33.9472 19.2516C33.9472 19.9336 35.0019 19.9336 35.0019 19.2516C35.0019 17.4235 35.0019 15.5953 35.0019 13.7672C35.0019 13.4789 34.7628 13.2399 34.4745 13.2399C31.6479 13.2399 28.8214 13.2399 25.9878 13.2399C21.8815 13.2399 17.7683 13.2399 13.662 13.2399C13.1276 13.2399 12.6003 13.2399 12.0659 13.2399C11.7776 13.2399 11.5386 13.4789 11.5386 13.7672C11.5386 15.5953 11.5386 17.4235 11.5386 19.2516C11.5386 19.5399 11.7776 19.7789 12.0659 19.7789C14.8925 19.7789 17.719 19.7789 20.5526 19.7789C24.6589 19.7789 28.7722 19.7789 32.8784 19.7789C33.4128 19.7789 33.9401 19.7789 34.4745 19.7789C35.1565 19.7789 35.1565 18.7242 34.4745 18.7242Z" fill="black"/>
<path d="M10.0761 28.6453C7.88936 28.6453 5.70967 28.6453 3.52295 28.6453C3.69873 28.8211 3.87451 28.9969 4.05029 29.1727C4.05029 26.5078 4.05029 23.85 4.05029 21.1852C3.87451 21.361 3.69873 21.5367 3.52295 21.7125C5.70967 21.7125 7.88936 21.7125 10.0761 21.7125C9.90029 21.5367 9.72451 21.361 9.54873 21.1852C9.54873 23.85 9.54873 26.5078 9.54873 29.1727C9.54873 29.8547 10.6034 29.8547 10.6034 29.1727C10.6034 26.5078 10.6034 23.85 10.6034 21.1852C10.6034 20.8969 10.3644 20.6578 10.0761 20.6578C7.88936 20.6578 5.70967 20.6578 3.52295 20.6578C3.23467 20.6578 2.99561 20.8969 2.99561 21.1852C2.99561 23.85 2.99561 26.5078 2.99561 29.1727C2.99561 29.461 3.23467 29.7 3.52295 29.7C5.70967 29.7 7.88936 29.7 10.0761 29.7C10.7511 29.7 10.7511 28.6453 10.0761 28.6453Z" fill="black"/>
<path d="M12.0728 30.5789C8.68369 30.5789 5.30166 30.5789 1.9126 30.5789C1.78604 30.5789 1.65244 30.5789 1.52588 30.5789C1.70166 30.7547 1.87744 30.9305 2.05322 31.1063C2.05322 27.6047 2.05322 24.0961 2.05322 20.5946C2.05322 20.1446 2.05322 19.7016 2.05322 19.2516C1.87744 19.4274 1.70166 19.6031 1.52588 19.7789C4.91494 19.7789 8.29697 19.7789 11.686 19.7789C11.8126 19.7789 11.9462 19.7789 12.0728 19.7789C11.897 19.6031 11.7212 19.4274 11.5454 19.2516C11.5454 22.7531 11.5454 26.2617 11.5454 29.7633C11.5454 30.2133 11.5454 30.6563 11.5454 31.1063C11.5454 31.7883 12.6001 31.7883 12.6001 31.1063C12.6001 27.6047 12.6001 24.0961 12.6001 20.5946C12.6001 20.1446 12.6001 19.7016 12.6001 19.2516C12.6001 18.9633 12.361 18.7242 12.0728 18.7242C8.68369 18.7242 5.30166 18.7242 1.9126 18.7242C1.78604 18.7242 1.65244 18.7242 1.52588 18.7242C1.2376 18.7242 0.998535 18.9633 0.998535 19.2516C0.998535 22.7531 0.998535 26.2617 0.998535 29.7633C0.998535 30.2133 0.998535 30.6563 0.998535 31.1063C0.998535 31.3946 1.2376 31.6336 1.52588 31.6336C4.91494 31.6336 8.29697 31.6336 11.686 31.6336C11.8126 31.6336 11.9462 31.6336 12.0728 31.6336C12.7548 31.6336 12.7548 30.5789 12.0728 30.5789Z" fill="black"/>
<path d="M21.3257 26.7117C21.3257 25.6922 21.3257 24.6727 21.3257 23.6531C21.3257 22.9711 20.271 22.9711 20.271 23.6531C20.271 24.6727 20.271 25.6922 20.271 26.7117C20.271 27.3867 21.3257 27.3867 21.3257 26.7117Z" fill="black"/>
<path d="M26.2759 26.7117C26.2759 25.6922 26.2759 24.6727 26.2759 23.6531C26.2759 22.9711 25.2212 22.9711 25.2212 23.6531C25.2212 24.6727 25.2212 25.6922 25.2212 26.7117C25.2212 27.3867 26.2759 27.3867 26.2759 26.7117Z" fill="black"/>
<path d="M5.21006 16.5656C5.1749 17.3883 3.97256 17.3883 3.9374 16.5656C3.90927 15.75 5.18193 15.75 5.21006 16.5656C5.23818 17.2406 6.29287 17.2477 6.26474 16.5656C6.22959 15.6164 5.51943 14.9133 4.57724 14.8781C3.63505 14.843 2.9249 15.6797 2.88974 16.5656C2.85459 17.5078 3.6913 18.218 4.57724 18.2531C5.51943 18.2883 6.22959 17.4516 6.26474 16.5656C6.29287 15.8906 5.23818 15.8906 5.21006 16.5656Z" fill="black"/>
<path d="M9.6539 16.5656C9.61875 17.3883 8.4164 17.3883 8.38125 16.5656C8.34609 15.75 9.61875 15.75 9.6539 16.5656C9.68203 17.2406 10.7367 17.2477 10.7086 16.5656C10.6734 15.6164 9.96328 14.9133 9.02109 14.8781C8.0789 14.843 7.36875 15.6797 7.33359 16.5656C7.29843 17.5078 8.13515 18.218 9.02109 18.2531C9.96328 18.2883 10.6734 17.4516 10.7086 16.5656C10.7367 15.8906 9.68203 15.8906 9.6539 16.5656Z" fill="black"/>
<path d="M3.10809 12.9867C3.2909 13.3383 3.47371 13.6899 3.65652 14.0344C3.7409 14.1961 3.93074 14.2946 4.11356 14.2946C5.89949 14.2946 7.69246 14.2946 9.4784 14.2946C9.65418 14.2946 9.85106 14.1961 9.93543 14.0344C10.3995 13.1555 10.9128 12.3117 10.9128 11.2781C10.9128 10.6172 10.9128 9.96331 10.9128 9.30237C10.9128 9.01409 10.6737 8.77502 10.3854 8.77502C7.98777 8.77502 5.59715 8.77502 3.19949 8.77502C2.91121 8.77502 2.67215 9.01409 2.67215 9.30237C2.67918 10.5469 2.53152 11.8406 3.10809 12.9867C3.41043 13.5985 4.32449 13.0641 4.02215 12.4524C3.73387 11.8758 3.73387 11.2922 3.73387 10.6664C3.73387 10.2094 3.73387 9.7594 3.73387 9.30237C3.55809 9.47815 3.38231 9.65393 3.20652 9.82971C5.60418 9.82971 7.99481 9.82971 10.3925 9.82971C10.2167 9.65393 10.0409 9.47815 9.86512 9.30237C9.86512 9.94924 9.86512 10.5891 9.86512 11.236C9.86512 12.0867 9.40809 12.7758 9.0284 13.5C9.18309 13.4156 9.33074 13.3242 9.48543 13.2399C7.69949 13.2399 5.90652 13.2399 4.12059 13.2399C4.27527 13.3242 4.42293 13.4156 4.57762 13.5C4.39481 13.1485 4.21199 12.7969 4.02918 12.4524C3.69871 11.8477 2.79168 12.3821 3.10809 12.9867Z" fill="black"/>
<path d="M12.0729 9.9071C11.5104 9.9071 10.9549 9.9071 10.3924 9.9071C9.71035 9.9071 9.71035 10.9618 10.3924 10.9618C10.9549 10.9618 11.5104 10.9618 12.0729 10.9618C12.7549 10.9618 12.7549 9.9071 12.0729 9.9071Z" fill="black"/>
<path d="M3.20615 9.9071C2.64365 9.9071 2.08818 9.9071 1.52568 9.9071C0.843652 9.9071 0.843652 10.9618 1.52568 10.9618C2.08818 10.9618 2.64365 10.9618 3.20615 10.9618C3.88818 10.9618 3.88818 9.9071 3.20615 9.9071Z" fill="black"/>
<path d="M20.6297 6.43359C24.1102 6.43359 27.5977 6.43359 31.0781 6.43359C32.2031 6.43359 33.3281 6.43359 34.4531 6.43359C35.1352 6.43359 35.1352 5.37891 34.4531 5.37891C30.9727 5.37891 27.4852 5.37891 24.0047 5.37891C22.8797 5.37891 21.7547 5.37891 20.6297 5.37891C19.9477 5.37891 19.9477 6.43359 20.6297 6.43359Z" fill="black"/>
<path d="M26.3179 9.27427C26.3179 7.83286 26.3179 6.39145 26.3179 4.95708C26.3179 4.27505 25.2632 4.27505 25.2632 4.95708C25.2632 6.39849 25.2632 7.83989 25.2632 9.27427C25.2632 9.9563 26.3179 9.9563 26.3179 9.27427Z" fill="black"/>
<path d="M26.4303 10.4344C26.3951 11.2571 25.1928 11.2571 25.1576 10.4344C25.1225 9.61879 26.3951 9.61879 26.4303 10.4344C26.4584 11.1094 27.5131 11.1164 27.485 10.4344C27.4498 9.4852 26.7396 8.78208 25.7975 8.74692C24.8553 8.71176 24.1451 9.54848 24.11 10.4344C24.0748 11.3766 24.9115 12.0868 25.7975 12.1219C26.7396 12.1571 27.4498 11.3204 27.485 10.4344C27.5061 9.75942 26.4514 9.75942 26.4303 10.4344Z" fill="black"/>
<path d="M32.7021 9.21099C32.7021 7.76958 32.7021 6.32817 32.7021 4.88677C32.7021 4.20474 31.6475 4.20474 31.6475 4.88677C31.6475 6.32817 31.6475 7.76958 31.6475 9.21099C31.6475 9.89302 32.7021 9.89302 32.7021 9.21099Z" fill="black"/>
<path d="M32.815 10.3712C32.7799 11.1938 31.5775 11.1938 31.5424 10.3712C31.5072 9.55556 32.7799 9.55556 32.815 10.3712C32.8432 11.0462 33.8979 11.0532 33.8697 10.3712C33.8346 9.42197 33.1244 8.71884 32.1822 8.68369C31.24 8.64853 30.5299 9.48525 30.4947 10.3712C30.4596 11.3134 31.2963 12.0235 32.1822 12.0587C33.1244 12.0938 33.8346 11.2571 33.8697 10.3712C33.8908 9.69619 32.8361 9.69619 32.815 10.3712Z" fill="black"/>
</svg>
