<svg width="36" height="36" viewBox="0 0 36 36" fill="none" xmlns="http://www.w3.org/2000/svg">
<path d="M0.5625 36H34.3125C34.623 36 34.875 35.7486 34.875 35.4375V14.625C34.875 14.4574 34.7985 14.3111 34.6821 14.2082L35.9871 8.14388C36.0186 7.99819 35.9904 7.84631 35.9094 7.72031C35.8284 7.59488 35.7013 7.50713 35.5556 7.47563L28.6554 5.99063L28.6279 5.9355L28.5587 5.96981L5.01862 0.90394L5.00344 0.873565L4.96519 0.89269L2.646 0.39319C2.34225 0.326252 2.043 0.520877 1.97775 0.82519L0.557437 7.42388C0.525937 7.56956 0.554062 7.72144 0.635062 7.84744C0.716062 7.97288 0.843187 8.06063 0.988875 8.09213L28.7302 14.0625H0.5625C0.252 14.0625 0 14.3139 0 14.625V35.4375C0 35.7486 0.252 36 0.5625 36ZM34.4008 10.1689L33.3979 8.16244L34.7692 8.45775L34.4008 10.1689ZM31.9882 7.85925L34.0222 11.9278L33.5857 13.9568L32.5243 13.7284L29.3006 7.281L31.9882 7.85925ZM29.0576 12.9819L25.8339 6.53456L27.891 6.97725L31.1147 13.4246L29.0576 12.9819ZM12.2816 3.618L14.3387 4.06069L17.5624 10.5081L15.5053 10.0654L12.2816 3.618ZM14.0957 9.76163L12.3536 9.38644L9.12994 2.93963L10.872 3.31481L14.0957 9.76163ZM15.7483 4.36444L17.8054 4.80713L21.0291 11.2545L18.972 10.8118L15.7483 4.36444ZM19.2156 5.11031L20.9576 5.4855L24.1813 11.9329L22.4392 11.5577L19.2156 5.11031ZM22.3672 5.78869L24.4243 6.23138L27.648 12.6788L25.5909 12.2361L22.3672 5.78869ZM7.72031 2.63644L10.944 9.08381L8.88694 8.64113L5.66325 2.19375L7.72031 2.63644ZM4.25362 1.89056L7.47731 8.33794L5.42025 7.89525L2.75456 2.56331L2.95931 1.61156L4.25362 1.89056ZM2.376 4.32225L4.01062 7.5915L1.77581 7.11056L2.376 4.32225ZM1.125 15.1875H33.75V34.875H1.125V15.1875Z" fill="black"/>
<path d="M17.4375 18C13.7154 18 10.6875 21.0279 10.6875 24.75C10.6875 28.4721 13.7154 31.5 17.4375 31.5C21.1596 31.5 24.1875 28.4721 24.1875 24.75C24.1875 21.0279 21.1596 18 17.4375 18ZM17.4375 30.375C14.3359 30.375 11.8125 27.8516 11.8125 24.75C11.8125 21.6484 14.3359 19.125 17.4375 19.125C20.5391 19.125 23.0625 21.6484 23.0625 24.75C23.0625 27.8516 20.5391 30.375 17.4375 30.375Z" fill="black"/>
<path d="M21.0639 24.2466L15.4389 21.4341C15.2646 21.3469 15.0576 21.3559 14.8916 21.4589C14.7263 21.5618 14.625 21.7424 14.625 21.9376V27.5626C14.625 27.7577 14.7263 27.9383 14.8916 28.0412C14.9822 28.0969 15.0846 28.1251 15.1875 28.1251C15.2736 28.1251 15.3596 28.1054 15.4389 28.066L21.0639 25.2535C21.2546 25.1579 21.375 24.9632 21.375 24.7501C21.375 24.5369 21.2546 24.3422 21.0639 24.2466ZM15.75 26.6524V22.8477L19.5547 24.7501L15.75 26.6524Z" fill="black"/>
</svg>
