<svg xmlns="http://www.w3.org/2000/svg" version="1.1" xmlns:xlink="http://www.w3.org/1999/xlink" xmlns:svgjs="http://svgjs.com/svgjs" id="svg-pattern-571" width="100%" height="100%"><defs><pattern x="0" y="0" width="150" height="157" patternUnits="userSpaceOnUse" id="pattern-571-layer-1"><g id="PatternRootContent1" transform="scale(1)"><rect class="fill0" width="150" height="157" fill="#cfc0c5"></rect>
<g class="fill1" fill="#d6dde3">
	<path d="M149.823,46.98c-0.161,0.389-0.066,0.8,0.177,1.104v-1.53L149.823,46.98z"></path>
	<path d="M147.068,100.752l-1.145,0.474l3.597,11.24c0.081,0.253,0.261,0.443,0.48,0.553v-6.574L147.068,100.752z"></path>
	<polygon points="148.684,99.41 147.808,100.286 150,102.876 150,100.524 	"></polygon>
	<polygon points="149.663,97.552 149.189,98.697 150,99.115 150,97.66 	"></polygon>
	<polygon points="149.857,95.461 149.857,96.7 150,96.712 150,95.449 	"></polygon>
	<polygon points="149.236,93.455 149.71,94.599 150,94.507 150,93.061 	"></polygon>
	<polygon points="147.894,91.839 148.77,92.715 150,91.674 150,89.351 	"></polygon>
	<path d="M149.633,79.62l-3.597,11.24l1.145,0.474L150,85.861v-6.71C149.838,79.265,149.699,79.415,149.633,79.62z"></path>
	<path d="M145.219,156.381h-1.31c-0.41,0-0.752,0.261-0.885,0.619h3.08
		C145.972,156.641,145.629,156.381,145.219,156.381z"></path>
	<path d="M149.823,125.48c-0.161,0.389-0.066,0.8,0.177,1.104v-1.53L149.823,125.48z"></path>
	<path d="M149.672,131.022c-0.645-0.054-1.199,0.456-1.199,1.103v1.534c0,0.648,0.553,1.157,1.199,1.103l0.328-0.027
		v-3.686L149.672,131.022z"></path>
	<path d="M149.768,140.315l0.232,0.559v-1.737C149.71,139.443,149.595,139.896,149.768,140.315z"></path>
	<path d="M145.219,77.881h-1.31c-0.553,0-0.988,0.473-0.942,1.024l0.978,11.761h1.239l0.978-11.761
		C146.208,78.354,145.773,77.881,145.219,77.881z"></path>
	<path d="M138.224,78.987l-1.21,0.501c-0.511,0.212-0.732,0.815-0.479,1.307l5.404,10.491l1.145-0.474l-3.597-11.24
		C139.318,79.046,138.735,78.776,138.224,78.987z"></path>
	<path d="M132.184,82.687l-0.926,0.926c-0.391,0.391-0.365,1.033,0.058,1.391l9.008,7.625l0.876-0.876l-7.625-9.008
		C133.217,82.322,132.575,82.296,132.184,82.687z"></path>
	<path d="M128.019,88.416l-0.501,1.21c-0.212,0.511,0.059,1.094,0.585,1.263l11.24,3.597l0.474-1.145l-10.491-5.404
		C128.834,87.684,128.231,87.905,128.019,88.416z"></path>
	<path d="M126.365,95.303v1.31c0,0.553,0.473,0.988,1.024,0.942l11.761-0.978v-1.239l-11.761-0.978
		C126.837,94.315,126.365,94.75,126.365,95.303z"></path>
	<path d="M128.057,101.036c-0.527,0.169-0.797,0.752-0.585,1.263l0.501,1.21c0.212,0.511,0.815,0.732,1.307,0.479
		l10.491-5.404l-0.474-1.145L128.057,101.036z"></path>
	<path d="M131.229,106.948c-0.422,0.357-0.449,0.999-0.058,1.391l0.926,0.926c0.391,0.391,1.033,0.365,1.391-0.058
		l7.625-9.008l-0.876-0.876L131.229,106.948z"></path>
	<path d="M136.421,111.196c-0.253,0.492-0.032,1.095,0.479,1.307l1.21,0.501c0.511,0.212,1.094-0.059,1.263-0.586
		l3.597-11.24l-1.145-0.474L136.421,111.196z"></path>
	<path d="M143.823,101.373l-0.978,11.761c-0.046,0.551,0.389,1.024,0.942,1.024h1.31c0.553,0,0.988-0.473,0.942-1.024
		l-0.978-11.761H143.823z"></path>
	<path d="M95.546,150.979h-1.534c-0.648,0-1.157,0.554-1.103,1.199L93.31,157h2.938l0.401-4.822
		C96.703,151.532,96.194,150.979,95.546,150.979z"></path>
	<path d="M87.356,152.274l-1.417,0.587c-0.598,0.248-0.857,0.954-0.56,1.53L86.723,157h3.405l-1.293-4.04
		C88.637,152.343,87.954,152.027,87.356,152.274z"></path>
	<path d="M80.285,156.606L79.891,157h2.299l-0.277-0.327C81.495,156.179,80.743,156.148,80.285,156.606z"></path>
	<path d="M107.604,156.774L107.413,157h2.112l-0.293-0.293C108.773,156.249,108.022,156.28,107.604,156.774z"></path>
	<path d="M103.609,152.916l-1.417-0.587c-0.598-0.248-1.281,0.069-1.478,0.685L99.438,157h3.415l1.316-2.554
		C104.466,153.87,104.207,153.164,103.609,152.916z"></path>
	<path d="M70.219,117.131h-1.31c-0.553,0-0.988,0.473-0.942,1.024l0.978,11.761h1.239l0.978-11.761
		C71.208,117.604,70.773,117.131,70.219,117.131z"></path>
	<path d="M63.224,118.237l-1.21,0.501c-0.511,0.212-0.732,0.815-0.479,1.307l5.404,10.491l1.145-0.474l-3.597-11.24
		C64.318,118.296,63.735,118.026,63.224,118.237z"></path>
	<path d="M57.184,121.937l-0.926,0.926c-0.391,0.391-0.365,1.033,0.058,1.391l9.008,7.625l0.876-0.876l-7.625-9.008
		C58.217,121.572,57.575,121.546,57.184,121.937z"></path>
	<path d="M53.02,127.666l-0.501,1.21c-0.212,0.511,0.059,1.094,0.585,1.263l11.24,3.597l0.474-1.145l-10.491-5.404
		C53.834,126.934,53.231,127.155,53.02,127.666z"></path>
	<path d="M51.365,134.553v1.31c0,0.553,0.473,0.988,1.024,0.942l11.761-0.978v-1.239l-11.761-0.978
		C51.837,133.565,51.365,134,51.365,134.553z"></path>
	<path d="M53.057,140.286c-0.527,0.169-0.797,0.752-0.585,1.263l0.501,1.21c0.212,0.511,0.815,0.732,1.307,0.479
		l10.491-5.404l-0.474-1.145L53.057,140.286z"></path>
	<path d="M56.229,146.198c-0.422,0.357-0.449,0.999-0.058,1.391l0.926,0.926c0.391,0.391,1.033,0.365,1.391-0.058
		l7.625-9.008l-0.876-0.876L56.229,146.198z"></path>
	<path d="M61.421,150.446c-0.253,0.492-0.032,1.095,0.479,1.307l1.21,0.501c0.511,0.212,1.094-0.059,1.263-0.585
		l3.597-11.24l-1.145-0.474L61.421,150.446z"></path>
	<path d="M68.823,140.623l-0.978,11.761c-0.046,0.551,0.389,1.024,0.943,1.024h1.31c0.553,0,0.988-0.473,0.942-1.024
		l-0.978-11.761H68.823z"></path>
	<path d="M72.068,140.002l-1.145,0.474l3.597,11.24c0.169,0.527,0.751,0.797,1.263,0.585l1.21-0.501
		c0.511-0.212,0.732-0.815,0.479-1.307L72.068,140.002z"></path>
	<path d="M73.684,138.66l-0.876,0.876l7.625,9.008c0.357,0.422,0.999,0.449,1.391,0.058l0.926-0.926
		c0.391-0.391,0.365-1.033-0.058-1.391L73.684,138.66z"></path>
	<path d="M85.903,140.399l-11.24-3.597l-0.474,1.145l10.491,5.404c0.492,0.253,1.095,0.032,1.307-0.479l0.501-1.21
		C86.7,141.151,86.43,140.568,85.903,140.399z"></path>
	<path d="M86.618,133.733l-11.761,0.978v1.239l11.761,0.978c0.551,0.046,1.024-0.389,1.024-0.942v-1.31
		C87.642,134.122,87.169,133.687,86.618,133.733z"></path>
	<path d="M86.034,127.779c-0.212-0.511-0.815-0.732-1.307-0.479l-10.491,5.404l0.474,1.145l11.24-3.597
		c0.527-0.169,0.797-0.752,0.585-1.263L86.034,127.779z"></path>
	<path d="M81.909,122.024c-0.391-0.391-1.033-0.365-1.391,0.058l-7.625,9.008l0.876,0.876l9.008-7.625
		c0.422-0.357,0.449-0.999,0.058-1.391L81.909,122.024z"></path>
	<path d="M77.106,118.786l-1.21-0.501c-0.511-0.212-1.094,0.059-1.263,0.585l-3.597,11.24l1.145,0.474l5.404-10.491
		C77.838,119.601,77.617,118.997,77.106,118.786z"></path>
	<path d="M20.546,111.729h-1.534c-0.648,0-1.157,0.553-1.103,1.199l1.145,13.768h1.451l1.145-13.768
		C21.703,112.282,21.194,111.729,20.546,111.729z"></path>
	<path d="M12.356,113.024l-1.417,0.587c-0.598,0.248-0.857,0.954-0.561,1.53l6.327,12.282l1.34-0.555l-4.211-13.158
		C13.637,113.093,12.954,112.777,12.356,113.024z"></path>
	<path d="M5.285,117.356l-1.084,1.084c-0.458,0.458-0.427,1.209,0.068,1.628l10.545,8.926l1.026-1.026l-8.926-10.545
		C6.495,116.929,5.743,116.898,5.285,117.356z"></path>
	<path d="M0.509,126.958l13.158,4.211l0.555-1.34L1.94,123.502c-0.576-0.297-1.282-0.038-1.53,0.561L0,125.053v1.53
		C0.131,126.747,0.292,126.889,0.509,126.958z"></path>
	<polygon points="13.44,132.167 0,131.049 0,134.735 13.44,133.617 	"></polygon>
	<path d="M1.885,142.293l12.282-6.327l-0.555-1.34l-13.158,4.211c-0.184,0.059-0.33,0.17-0.454,0.3v1.737l0.355,0.858
		C0.603,142.331,1.31,142.589,1.885,142.293z"></path>
	<path d="M4.167,145.758c-0.494,0.418-0.526,1.17-0.068,1.628l1.084,1.084c0.458,0.458,1.209,0.427,1.628-0.068
		l8.926-10.545l-1.026-1.026L4.167,145.758z"></path>
	<path d="M10.246,150.731c-0.297,0.576-0.038,1.282,0.561,1.53l1.417,0.587c0.598,0.248,1.281-0.069,1.478-0.685
		l4.211-13.158l-1.34-0.555L10.246,150.731z"></path>
	<path d="M18.911,139.231L17.766,153c-0.054,0.645,0.456,1.199,1.103,1.199h1.534c0.648,0,1.157-0.553,1.103-1.199
		l-1.145-13.768H18.911z"></path>
	<path d="M22.71,138.504l-1.34,0.555l4.211,13.158c0.197,0.617,0.88,0.933,1.478,0.685l1.417-0.587
		c0.598-0.248,0.857-0.954,0.561-1.53L22.71,138.504z"></path>
	<path d="M24.602,136.933l-1.026,1.026l8.926,10.545c0.418,0.494,1.17,0.526,1.628,0.068l1.084-1.084
		c0.458-0.458,0.427-1.209-0.068-1.628L24.602,136.933z"></path>
	<path d="M38.907,138.97l-13.158-4.211l-0.555,1.34l12.282,6.327c0.576,0.297,1.282,0.038,1.53-0.561l0.587-1.417
		C39.84,139.849,39.524,139.167,38.907,138.97z"></path>
	<path d="M39.744,131.165l-13.768,1.145v1.451l13.768,1.145c0.645,0.054,1.199-0.456,1.199-1.103v-1.534
		C40.943,131.621,40.389,131.112,39.744,131.165z"></path>
	<path d="M39.06,124.195c-0.248-0.598-0.954-0.857-1.53-0.561l-12.282,6.327l0.555,1.34l13.158-4.211
		c0.617-0.197,0.933-0.88,0.685-1.478L39.06,124.195z"></path>
	<path d="M34.231,117.457c-0.458-0.458-1.209-0.427-1.628,0.068l-8.926,10.545l1.026,1.026l10.545-8.926
		c0.494-0.418,0.526-1.17,0.068-1.628L34.231,117.457z"></path>
	<path d="M28.609,113.666l-1.417-0.587c-0.598-0.248-1.281,0.069-1.478,0.685l-4.211,13.158l1.34,0.555l6.327-12.282
		C29.466,114.62,29.207,113.914,28.609,113.666z"></path>
	<path d="M0.783,113.051l1.21-0.501c0.511-0.212,0.732-0.815,0.479-1.307L0,106.444v6.574
		C0.236,113.137,0.518,113.161,0.783,113.051z"></path>
	<path d="M6.823,109.352l0.926-0.926c0.391-0.391,0.365-1.033-0.058-1.391L0,100.524v2.352l5.432,6.417
		C5.789,109.716,6.432,109.743,6.823,109.352z"></path>
	<path d="M10.987,103.622l0.501-1.21c0.212-0.511-0.059-1.094-0.585-1.263L0,97.66v1.455l9.68,4.986
		C10.172,104.354,10.775,104.133,10.987,103.622z"></path>
	<path d="M12.642,96.735v-1.31c0-0.553-0.473-0.988-1.024-0.942L0,95.449v1.263l11.618,0.966
		C12.169,97.724,12.642,97.289,12.642,96.735z"></path>
	<path d="M11.535,89.74l-0.501-1.21c-0.212-0.511-0.815-0.732-1.307-0.479L0,93.061v1.446l10.95-3.504
		C11.477,90.834,11.747,90.251,11.535,89.74z"></path>
	<path d="M7.836,83.7l-0.926-0.926c-0.391-0.391-1.033-0.365-1.391,0.058L0,89.351v2.323l7.778-6.584
		C8.2,84.733,8.227,84.091,7.836,83.7z"></path>
	<path d="M2.106,79.536l-1.21-0.501C0.584,78.905,0.255,78.971,0,79.151v6.71l2.585-5.018
		C2.838,80.351,2.617,79.747,2.106,79.536z"></path>
	<path d="M149.672,52.522c-0.645-0.054-1.199,0.456-1.199,1.103v1.534c0,0.648,0.553,1.157,1.199,1.103L150,56.235
		v-3.686L149.672,52.522z"></path>
	<path d="M149.768,61.815L150,62.374v-1.737C149.71,60.943,149.595,61.396,149.768,61.815z"></path>
	<path d="M143.945,12.166h1.239l0.978-11.761c0.012-0.143-0.011-0.279-0.057-0.405h-3.08
		c-0.047,0.126-0.069,0.262-0.058,0.405L143.945,12.166z"></path>
	<path d="M138.224,0.487l-1.21,0.501c-0.511,0.212-0.732,0.815-0.479,1.307l5.404,10.491l1.145-0.474l-3.597-11.24
		C139.318,0.546,138.735,0.276,138.224,0.487z"></path>
	<path d="M132.184,4.187l-0.926,0.926c-0.391,0.391-0.365,1.033,0.058,1.391l9.008,7.625l0.876-0.876l-7.625-9.008
		C133.217,3.822,132.575,3.796,132.184,4.187z"></path>
	<path d="M128.019,9.916l-0.501,1.21c-0.212,0.511,0.059,1.094,0.585,1.263l11.24,3.597l0.474-1.145l-10.491-5.404
		C128.834,9.184,128.231,9.405,128.019,9.916z"></path>
	<path d="M126.365,16.803v1.31c0,0.553,0.473,0.988,1.024,0.942l11.761-0.978v-1.239l-11.761-0.978
		C126.837,15.815,126.365,16.25,126.365,16.803z"></path>
	<path d="M128.057,22.536c-0.527,0.169-0.797,0.752-0.585,1.263l0.501,1.21c0.212,0.511,0.815,0.732,1.307,0.479
		l10.491-5.404l-0.474-1.145L128.057,22.536z"></path>
	<path d="M131.229,28.448c-0.422,0.357-0.449,0.999-0.058,1.391l0.926,0.926c0.391,0.391,1.033,0.365,1.391-0.058
		l7.625-9.008l-0.876-0.876L131.229,28.448z"></path>
	<path d="M136.421,32.696c-0.253,0.492-0.032,1.095,0.479,1.307l1.21,0.501c0.511,0.212,1.094-0.059,1.263-0.585
		l3.597-11.24l-1.145-0.474L136.421,32.696z"></path>
	<path d="M143.823,22.873l-0.978,11.761c-0.046,0.551,0.389,1.024,0.942,1.024h1.31c0.553,0,0.988-0.473,0.942-1.024
		l-0.978-11.761H143.823z"></path>
	<path d="M147.068,22.252l-1.145,0.474l3.597,11.24c0.081,0.253,0.261,0.443,0.48,0.553v-6.574L147.068,22.252z"></path>
	<polygon points="148.684,20.91 147.808,21.786 150,24.376 150,22.024 	"></polygon>
	<polygon points="149.663,19.052 149.189,20.197 150,20.615 150,19.16 	"></polygon>
	<polygon points="149.857,16.961 149.857,18.2 150,18.212 150,16.949 	"></polygon>
	<polygon points="149.236,14.955 149.71,16.099 150,16.007 150,14.561 	"></polygon>
	<polygon points="147.894,13.339 148.77,14.215 150,13.174 150,10.851 	"></polygon>
	<path d="M149.633,1.12l-3.597,11.24l1.145,0.474L150,7.361v-6.71C149.838,0.765,149.699,0.915,149.633,1.12z"></path>
	<path d="M95.546,72.479h-1.534c-0.648,0-1.157,0.553-1.103,1.199l1.145,13.768h1.451l1.145-13.768
		C96.703,73.032,96.194,72.479,95.546,72.479z"></path>
	<path d="M87.356,73.774l-1.417,0.587c-0.598,0.248-0.857,0.954-0.56,1.53l6.327,12.282l1.34-0.555L88.834,74.46
		C88.637,73.843,87.954,73.527,87.356,73.774z"></path>
	<path d="M80.285,78.106l-1.084,1.084c-0.458,0.458-0.427,1.209,0.068,1.628l10.545,8.926l1.026-1.026l-8.926-10.545
		C81.495,77.679,80.743,77.648,80.285,78.106z"></path>
	<path d="M75.41,84.813l-0.587,1.417c-0.248,0.598,0.069,1.281,0.685,1.478l13.158,4.211l0.555-1.34L76.94,84.252
		C76.364,83.956,75.658,84.215,75.41,84.813z"></path>
	<path d="M73.473,92.875v1.534c0,0.648,0.554,1.157,1.199,1.103l13.768-1.145v-1.451l-13.768-1.145
		C74.026,91.718,73.473,92.228,73.473,92.875z"></path>
	<path d="M75.454,99.587c-0.617,0.197-0.933,0.88-0.685,1.478l0.587,1.417c0.248,0.598,0.954,0.857,1.53,0.561
		l12.282-6.327l-0.555-1.34L75.454,99.587z"></path>
	<path d="M79.167,106.508c-0.494,0.418-0.526,1.17-0.068,1.628l1.084,1.084c0.458,0.458,1.21,0.427,1.628-0.068
		l8.926-10.545l-1.026-1.026L79.167,106.508z"></path>
	<path d="M85.246,111.481c-0.297,0.576-0.038,1.282,0.561,1.53l1.417,0.587c0.598,0.248,1.281-0.069,1.478-0.685
		l4.211-13.158l-1.34-0.555L85.246,111.481z"></path>
	<path d="M93.911,99.981l-1.145,13.768c-0.054,0.645,0.456,1.199,1.103,1.199h1.534c0.648,0,1.157-0.553,1.103-1.199
		l-1.145-13.768H93.911z"></path>
	<path d="M97.71,99.254l-1.34,0.555l4.211,13.158c0.197,0.617,0.88,0.933,1.478,0.685l1.417-0.587
		c0.598-0.248,0.857-0.954,0.561-1.53L97.71,99.254z"></path>
	<path d="M99.602,97.683l-1.026,1.026l8.926,10.545c0.418,0.494,1.17,0.526,1.628,0.068l1.084-1.084
		c0.458-0.458,0.427-1.209-0.068-1.628L99.602,97.683z"></path>
	<path d="M113.907,99.719l-13.158-4.211l-0.555,1.34l12.282,6.327c0.576,0.297,1.282,0.038,1.53-0.56l0.587-1.417
		C114.84,100.599,114.524,99.917,113.907,99.719z"></path>
	<path d="M114.744,91.915l-13.768,1.145v1.451l13.768,1.145c0.645,0.054,1.199-0.456,1.199-1.103v-1.534
		C115.943,92.371,115.389,91.862,114.744,91.915z"></path>
	<path d="M114.06,84.945c-0.248-0.598-0.954-0.857-1.53-0.561l-12.282,6.327l0.555,1.34l13.158-4.211
		c0.617-0.197,0.933-0.88,0.685-1.478L114.06,84.945z"></path>
	<path d="M109.231,78.207c-0.458-0.458-1.21-0.427-1.628,0.068L98.677,88.82l1.026,1.026l10.545-8.926
		c0.494-0.418,0.526-1.17,0.068-1.628L109.231,78.207z"></path>
	<path d="M103.609,74.416l-1.417-0.587c-0.598-0.248-1.281,0.069-1.478,0.685l-4.211,13.158l1.34,0.555l6.327-12.282
		C104.466,75.37,104.207,74.664,103.609,74.416z"></path>
	<path d="M70.219,38.631h-1.31c-0.553,0-0.988,0.473-0.942,1.024l0.978,11.761h1.239l0.978-11.761
		C71.208,39.104,70.773,38.631,70.219,38.631z"></path>
	<path d="M63.224,39.737l-1.21,0.501c-0.511,0.212-0.732,0.815-0.479,1.307l5.404,10.491l1.145-0.474l-3.597-11.24
		C64.318,39.796,63.735,39.526,63.224,39.737z"></path>
	<path d="M57.184,43.437l-0.926,0.926c-0.391,0.391-0.365,1.033,0.058,1.391l9.008,7.625l0.876-0.876l-7.625-9.008
		C58.217,43.072,57.575,43.046,57.184,43.437z"></path>
	<path d="M53.02,49.166l-0.501,1.21c-0.212,0.511,0.059,1.094,0.585,1.263l11.24,3.597l0.474-1.145l-10.491-5.404
		C53.834,48.434,53.231,48.655,53.02,49.166z"></path>
	<path d="M51.365,56.053v1.31c0,0.553,0.473,0.988,1.024,0.942l11.761-0.978v-1.239l-11.761-0.978
		C51.837,55.065,51.365,55.5,51.365,56.053z"></path>
	<path d="M53.057,61.786c-0.527,0.169-0.797,0.751-0.585,1.263l0.501,1.21c0.212,0.511,0.815,0.732,1.307,0.479
		l10.491-5.404l-0.474-1.145L53.057,61.786z"></path>
	<path d="M56.229,67.698c-0.422,0.357-0.449,0.999-0.058,1.391l0.926,0.926c0.391,0.391,1.033,0.365,1.391-0.058
		l7.625-9.008l-0.876-0.876L56.229,67.698z"></path>
	<path d="M61.421,71.946c-0.253,0.492-0.032,1.095,0.479,1.307l1.21,0.501c0.511,0.212,1.094-0.059,1.263-0.585
		l3.597-11.24l-1.145-0.474L61.421,71.946z"></path>
	<path d="M68.823,62.123l-0.978,11.761c-0.046,0.551,0.389,1.024,0.943,1.024h1.31c0.553,0,0.988-0.473,0.942-1.024
		l-0.978-11.761H68.823z"></path>
	<path d="M72.068,61.502l-1.145,0.474l3.597,11.24c0.169,0.527,0.751,0.797,1.263,0.585l1.21-0.501
		c0.511-0.212,0.732-0.815,0.479-1.307L72.068,61.502z"></path>
	<path d="M73.684,60.16l-0.876,0.876l7.625,9.008c0.357,0.422,0.999,0.449,1.391,0.058l0.926-0.926
		c0.391-0.391,0.365-1.033-0.058-1.391L73.684,60.16z"></path>
	<path d="M85.903,61.899l-11.24-3.597l-0.474,1.145l10.491,5.404c0.492,0.253,1.095,0.032,1.307-0.479l0.501-1.21
		C86.7,62.651,86.43,62.068,85.903,61.899z"></path>
	<path d="M86.618,55.233l-11.761,0.978v1.239l11.761,0.978c0.551,0.046,1.024-0.389,1.024-0.942v-1.31
		C87.642,55.622,87.169,55.187,86.618,55.233z"></path>
	<path d="M86.034,49.279c-0.212-0.511-0.815-0.732-1.307-0.479l-10.491,5.404l0.474,1.145l11.24-3.597
		c0.527-0.169,0.797-0.751,0.585-1.263L86.034,49.279z"></path>
	<path d="M81.909,43.523c-0.391-0.391-1.033-0.365-1.391,0.058l-7.625,9.008l0.876,0.876l9.008-7.625
		c0.422-0.357,0.449-0.999,0.058-1.391L81.909,43.523z"></path>
	<path d="M77.106,40.286l-1.21-0.501c-0.511-0.212-1.094,0.059-1.263,0.585l-3.597,11.24l1.145,0.474l5.404-10.491
		C77.838,41.101,77.617,40.497,77.106,40.286z"></path>
	<path d="M20.546,33.229h-1.534c-0.648,0-1.157,0.553-1.103,1.199l1.145,13.768h1.451l1.145-13.768
		C21.703,33.782,21.194,33.229,20.546,33.229z"></path>
	<path d="M12.356,34.524l-1.417,0.587c-0.598,0.248-0.857,0.954-0.561,1.53l6.327,12.282l1.34-0.555L13.834,35.21
		C13.637,34.593,12.954,34.277,12.356,34.524z"></path>
	<path d="M5.285,38.856L4.201,39.94c-0.458,0.458-0.427,1.209,0.068,1.628l10.545,8.926l1.026-1.026L6.913,38.923
		C6.495,38.429,5.743,38.398,5.285,38.856z"></path>
	<path d="M0.509,48.458l13.158,4.211l0.555-1.34L1.94,45.002c-0.576-0.297-1.282-0.038-1.53,0.561L0,46.553v1.53
		C0.131,48.247,0.292,48.389,0.509,48.458z"></path>
	<polygon points="13.44,53.667 0,52.549 0,56.235 13.44,55.117 	"></polygon>
	<path d="M1.885,63.793l12.282-6.327l-0.555-1.34L0.454,60.337c-0.184,0.059-0.33,0.17-0.454,0.3v1.737l0.355,0.858
		C0.603,63.831,1.31,64.089,1.885,63.793z"></path>
	<path d="M4.167,67.258c-0.494,0.418-0.526,1.17-0.068,1.628l1.084,1.084c0.458,0.458,1.209,0.427,1.628-0.068
		l8.926-10.545l-1.026-1.026L4.167,67.258z"></path>
	<path d="M10.246,72.231c-0.297,0.576-0.038,1.282,0.561,1.53l1.417,0.587c0.598,0.248,1.281-0.069,1.478-0.685
		l4.211-13.158l-1.34-0.555L10.246,72.231z"></path>
	<path d="M18.911,60.731L17.766,74.5c-0.054,0.645,0.456,1.199,1.103,1.199h1.534c0.648,0,1.157-0.553,1.103-1.199
		l-1.145-13.768H18.911z"></path>
	<path d="M22.71,60.004l-1.34,0.555l4.211,13.158c0.197,0.617,0.88,0.933,1.478,0.685l1.417-0.587
		c0.598-0.248,0.857-0.954,0.561-1.53L22.71,60.004z"></path>
	<path d="M24.602,58.433l-1.026,1.026l8.926,10.545c0.418,0.494,1.17,0.526,1.628,0.068l1.084-1.084
		c0.458-0.458,0.427-1.209-0.068-1.628L24.602,58.433z"></path>
	<path d="M38.907,60.469l-13.158-4.211l-0.555,1.34l12.282,6.327c0.576,0.297,1.282,0.038,1.53-0.561l0.587-1.417
		C39.84,61.349,39.524,60.667,38.907,60.469z"></path>
	<path d="M39.744,52.665L25.975,53.81v1.451l13.768,1.145c0.645,0.054,1.199-0.456,1.199-1.103v-1.534
		C40.943,53.121,40.389,52.612,39.744,52.665z"></path>
	<path d="M39.06,45.695c-0.248-0.598-0.954-0.857-1.53-0.561l-12.282,6.327l0.555,1.34l13.158-4.211
		c0.617-0.197,0.933-0.88,0.685-1.478L39.06,45.695z"></path>
	<path d="M34.231,38.957c-0.458-0.458-1.209-0.427-1.628,0.068L23.677,49.57l1.026,1.026l10.545-8.926
		c0.494-0.418,0.526-1.17,0.068-1.628L34.231,38.957z"></path>
	<path d="M28.609,35.166l-1.417-0.587c-0.598-0.248-1.281,0.069-1.478,0.685l-4.211,13.158l1.34,0.555l6.327-12.282
		C29.466,36.12,29.207,35.414,28.609,35.166z"></path>
	<path d="M0.783,34.551l1.21-0.501c0.511-0.212,0.732-0.815,0.479-1.307L0,27.944v6.574
		C0.236,34.636,0.518,34.661,0.783,34.551z"></path>
	<path d="M6.823,30.852l0.926-0.926c0.391-0.391,0.365-1.033-0.058-1.391L0,22.024v2.352l5.432,6.417
		C5.789,31.216,6.432,31.243,6.823,30.852z"></path>
	<path d="M10.987,25.122l0.501-1.21c0.212-0.511-0.059-1.094-0.585-1.263L0,19.16v1.455l9.68,4.986
		C10.172,25.854,10.775,25.633,10.987,25.122z"></path>
	<path d="M12.642,18.235v-1.31c0-0.553-0.473-0.988-1.024-0.942L0,16.949v1.263l11.618,0.966
		C12.169,19.224,12.642,18.789,12.642,18.235z"></path>
	<path d="M11.535,11.24l-0.501-1.21c-0.212-0.511-0.815-0.732-1.307-0.479L0,14.561v1.446l10.95-3.504
		C11.477,12.334,11.747,11.751,11.535,11.24z"></path>
	<path d="M7.836,5.2L6.909,4.273C6.518,3.882,5.876,3.909,5.519,4.331L0,10.851v2.323L7.778,6.59
		C8.2,6.233,8.227,5.591,7.836,5.2z"></path>
	<path d="M2.106,1.036l-1.21-0.501C0.584,0.405,0.255,0.471,0,0.651v6.71l2.585-5.018
		C2.838,1.851,2.617,1.247,2.106,1.036z"></path>
	<path d="M126.73,0.62h1.31c0.333,0,0.654-0.141,0.88-0.386c0.062-0.068,0.094-0.154,0.139-0.233h-0.653
		c-0.11,0.07-0.231,0.12-0.366,0.12h-1.31c-0.135,0-0.256-0.049-0.366-0.12h-0.653c0.045,0.079,0.077,0.166,0.139,0.234
		C126.076,0.479,126.396,0.62,126.73,0.62z"></path>
	<polygon points="95.505,8.946 96.249,0 93.31,0 94.054,8.946 	"></polygon>
	<polygon points="93.045,9.118 90.127,0 86.723,0 91.705,9.673 	"></polygon>
	<path d="M79.268,2.318l10.545,8.926l1.026-1.026L82.19,0h-2.299l-0.69,0.69C78.743,1.148,78.774,1.899,79.268,2.318z"></path>
	<path d="M75.41,6.313L74.823,7.73c-0.248,0.598,0.069,1.281,0.685,1.478l13.158,4.211l0.555-1.34L76.94,5.752
		C76.364,5.456,75.658,5.714,75.41,6.313z"></path>
	<path d="M73.473,14.375v1.534c0,0.648,0.554,1.157,1.199,1.103l13.768-1.145v-1.451l-13.768-1.145
		C74.026,13.218,73.473,13.728,73.473,14.375z"></path>
	<path d="M75.454,21.087c-0.617,0.197-0.933,0.88-0.685,1.478l0.587,1.417c0.248,0.598,0.954,0.857,1.53,0.56
		l12.282-6.327l-0.555-1.34L75.454,21.087z"></path>
	<path d="M79.167,28.008c-0.494,0.418-0.526,1.17-0.068,1.628l1.084,1.084c0.458,0.458,1.21,0.427,1.628-0.068
		l8.926-10.545l-1.026-1.026L79.167,28.008z"></path>
	<path d="M85.246,32.981c-0.297,0.576-0.038,1.282,0.561,1.53l1.417,0.587c0.598,0.248,1.281-0.069,1.478-0.685
		l4.211-13.158l-1.34-0.555L85.246,32.981z"></path>
	<path d="M93.911,21.481L92.766,35.25c-0.054,0.645,0.456,1.199,1.103,1.199h1.534c0.648,0,1.157-0.553,1.103-1.199
		l-1.145-13.768H93.911z"></path>
	<path d="M97.71,20.754l-1.34,0.555l4.211,13.158c0.197,0.617,0.88,0.933,1.478,0.685l1.417-0.587
		c0.598-0.248,0.857-0.954,0.561-1.53L97.71,20.754z"></path>
	<path d="M99.602,19.183l-1.026,1.026l8.926,10.545c0.418,0.494,1.17,0.526,1.628,0.068l1.084-1.084
		c0.458-0.458,0.427-1.209-0.068-1.628L99.602,19.183z"></path>
	<path d="M113.907,21.219l-13.158-4.211l-0.555,1.34l12.282,6.327c0.576,0.297,1.282,0.038,1.53-0.561l0.587-1.417
		C114.84,22.099,114.524,21.417,113.907,21.219z"></path>
	<path d="M114.744,13.415l-13.768,1.145v1.451l13.768,1.145c0.645,0.054,1.199-0.456,1.199-1.103v-1.534
		C115.943,13.871,115.389,13.362,114.744,13.415z"></path>
	<path d="M114.06,6.445c-0.248-0.598-0.954-0.857-1.53-0.561l-12.282,6.327l0.555,1.34l13.158-4.211
		c0.617-0.197,0.933-0.88,0.685-1.478L114.06,6.445z"></path>
	<path d="M99.703,11.345l10.545-8.926c0.494-0.418,0.526-1.17,0.068-1.628L109.525,0h-2.112l-8.735,10.32L99.703,11.345
		z"></path>
	<polygon points="97.842,9.728 102.853,0 99.438,0 96.502,9.173 	"></polygon>
</g>
<g class="fill2" fill="#e4d8dc">
	<path d="M128.162,120.843h-1.31c-0.333,0-0.654,0.141-0.88,0.386c-0.226,0.245-0.339,0.576-0.312,0.908l0.997,11.99
		h1.699l0.997-11.99c0.028-0.332-0.086-0.663-0.312-0.908C128.816,120.983,128.495,120.843,128.162,120.843z M127.896,133.627
		h-0.779l-0.959-11.531c-0.016-0.196,0.048-0.384,0.181-0.529c0.133-0.145,0.315-0.225,0.512-0.225h1.31
		c0.197,0,0.379,0.08,0.512,0.225c0.133,0.145,0.197,0.333,0.181,0.529L127.896,133.627z"></path>
	<path d="M121.528,121.877c-0.157,0-0.311,0.031-0.457,0.091l-1.21,0.501c-0.308,0.127-0.55,0.38-0.665,0.693
		c-0.115,0.313-0.093,0.663,0.06,0.959l5.51,10.696l1.569-0.651l-3.667-11.458C122.508,122.211,122.05,121.877,121.528,121.877z
		 M124.998,134.18l-5.299-10.286c-0.09-0.175-0.102-0.374-0.034-0.559c0.067-0.185,0.205-0.328,0.387-0.403l1.21-0.501
		c0.085-0.036,0.175-0.053,0.266-0.053c0.304,0,0.57,0.194,0.663,0.484l3.527,11.02L124.998,134.18z"></path>
	<path d="M114.95,125.722l-0.926,0.926c-0.236,0.236-0.363,0.563-0.349,0.896c0.014,0.332,0.167,0.647,0.422,0.862
		l9.184,7.773l1.201-1.201l-7.773-9.184C116.273,125.283,115.424,125.248,114.95,125.722z M123.251,135.501l-8.832-7.476
		c-0.15-0.127-0.237-0.305-0.246-0.501c-0.008-0.197,0.064-0.382,0.203-0.521l0.926-0.926c0.131-0.131,0.306-0.204,0.492-0.204
		c0.205,0,0.399,0.09,0.531,0.246l7.476,8.832L123.251,135.501z"></path>
	<path d="M111.837,130.794c-0.486,0-0.92,0.29-1.105,0.739l-0.501,1.21c-0.127,0.308-0.121,0.658,0.02,0.96
		c0.141,0.303,0.403,0.535,0.721,0.636l11.459,3.667l0.65-1.569l-10.695-5.51C112.215,130.84,112.025,130.794,111.837,130.794z
		 M122.143,137.39l-11.021-3.527c-0.188-0.06-0.336-0.191-0.419-0.37c-0.083-0.179-0.086-0.377-0.011-0.559l0.501-1.21
		c0.108-0.261,0.361-0.43,0.644-0.43c0.111,0,0.218,0.026,0.318,0.078l10.287,5.299L122.143,137.39z"></path>
	<path d="M109.057,138.515v1.31c0,0.659,0.536,1.196,1.194,1.196c0.033,0,0.066-0.001,0.1-0.004l11.99-0.997v-1.699
		l-11.99-0.997C109.65,137.263,109.057,137.823,109.057,138.515z M121.842,139.56l-11.531,0.959l-0.059,0.002
		c-0.383,0-0.694-0.312-0.694-0.696v-1.31c0-0.384,0.312-0.696,0.694-0.696l11.59,0.961V139.56z"></path>
	<path d="M110.923,144.01c-0.317,0.102-0.58,0.333-0.72,0.636c-0.141,0.303-0.147,0.653-0.02,0.961l0.501,1.21
		c0.186,0.449,0.62,0.739,1.105,0.739c0.188,0,0.378-0.046,0.546-0.133l10.696-5.51l-0.65-1.569L110.923,144.01z M112.107,146.978
		c-0.354,0.182-0.811,0.011-0.961-0.353l-0.501-1.21c-0.075-0.182-0.071-0.38,0.012-0.559c0.083-0.179,0.231-0.31,0.419-0.37
		l11.021-3.527l0.298,0.72L112.107,146.978z"></path>
	<path d="M114.01,149.969c-0.254,0.215-0.408,0.53-0.422,0.863c-0.014,0.333,0.113,0.66,0.349,0.896l0.926,0.926
		c0.226,0.226,0.526,0.35,0.845,0.35c0.353,0,0.686-0.154,0.913-0.423l7.773-9.184l-1.201-1.201L114.01,149.969z M116.24,152.258
		c-0.251,0.298-0.746,0.319-1.023,0.042l-0.926-0.926c-0.139-0.139-0.211-0.324-0.203-0.521s0.095-0.375,0.246-0.502l8.832-7.476
		l0.551,0.551L116.24,152.258z"></path>
	<path d="M119.142,154.293c-0.153,0.296-0.175,0.646-0.06,0.959c0.115,0.313,0.357,0.565,0.665,0.693l1.21,0.501
		c0.146,0.061,0.3,0.091,0.458,0.091c0.522,0,0.98-0.334,1.139-0.832l3.667-11.459l-1.57-0.65L119.142,154.293z M125.605,144.534
		l-3.527,11.021c-0.12,0.376-0.559,0.585-0.929,0.431l-1.21-0.501c-0.182-0.075-0.319-0.218-0.387-0.403
		c-0.068-0.185-0.056-0.383,0.035-0.558l5.298-10.287L125.605,144.534z"></path>
	<path d="M128.234,144.335h-1.699l-0.997,11.99c-0.02,0.24,0.056,0.468,0.173,0.675h0.654
		c-0.051-0.032-0.104-0.059-0.146-0.105c-0.134-0.145-0.198-0.333-0.182-0.529l0.959-11.531h0.779l0.959,11.531
		c0.016,0.196-0.048,0.384-0.182,0.529c-0.042,0.046-0.096,0.073-0.146,0.105h0.653c0.117-0.207,0.193-0.435,0.173-0.675
		L128.234,144.335z"></path>
	<path d="M130.127,143.645l-1.57,0.65l3.667,11.459c0.16,0.498,0.618,0.832,1.139,0.832
		c0.157,0,0.311-0.031,0.458-0.091l1.21-0.501c0.308-0.127,0.55-0.38,0.665-0.693c0.115-0.313,0.093-0.663-0.06-0.959
		L130.127,143.645z M135.227,155.127c-0.068,0.185-0.205,0.328-0.387,0.403l-1.21,0.501c-0.37,0.154-0.808-0.054-0.929-0.431
		l-3.527-11.021l0.72-0.298l5.298,10.287C135.283,154.745,135.295,154.943,135.227,155.127z"></path>
	<path d="M131.612,142.283l-1.201,1.202l7.773,9.183c0.228,0.269,0.561,0.423,0.913,0.423
		c0.319,0,0.62-0.124,0.846-0.35l0.926-0.926c0.236-0.236,0.363-0.562,0.349-0.895c-0.014-0.333-0.168-0.648-0.422-0.863
		L131.612,142.283z M140.515,151.46l-0.926,0.926c-0.276,0.276-0.771,0.256-1.023-0.042l-7.476-8.832l0.551-0.551l8.832,7.476
		c0.15,0.127,0.238,0.306,0.246,0.502C140.726,151.136,140.654,151.321,140.515,151.46z"></path>
	<path d="M143.922,144.123l-11.459-3.667l-0.65,1.57l10.695,5.509c0.171,0.088,0.355,0.133,0.547,0.133
		c0.485,0,0.919-0.29,1.105-0.738l0.501-1.21c0.127-0.308,0.12-0.658-0.02-0.96S144.239,144.225,143.922,144.123z M144.2,145.528
		l-0.501,1.21c-0.151,0.363-0.605,0.534-0.961,0.352l-10.287-5.298l0.298-0.72l11.021,3.527c0.188,0.06,0.336,0.191,0.419,0.37
		C144.271,145.148,144.275,145.347,144.2,145.528z"></path>
	<path d="M144.54,137.446l-11.99,0.997v1.699l11.99,0.997c0.034,0.003,0.067,0.004,0.1,0.004
		c0.659,0,1.194-0.537,1.194-1.196v-1.31C145.834,137.945,145.241,137.384,144.54,137.446z M145.334,139.948
		c0,0.384-0.312,0.696-0.694,0.696l-11.59-0.961v-0.779l11.531-0.958l0.059-0.002c0.383,0,0.694,0.312,0.694,0.696V139.948z"></path>
	<path d="M144.207,131.646c-0.186-0.448-0.62-0.738-1.105-0.738c-0.188,0-0.378,0.046-0.546,0.133l-10.696,5.509
		l0.65,1.57l11.459-3.667c0.317-0.102,0.58-0.333,0.72-0.635c0.141-0.303,0.148-0.653,0.021-0.961L144.207,131.646z
		 M144.235,133.607c-0.083,0.178-0.232,0.31-0.419,0.369l-11.021,3.527l-0.298-0.72l10.287-5.298
		c0.354-0.181,0.81-0.011,0.961,0.352l0.501,1.21C144.322,133.229,144.318,133.428,144.235,133.607z"></path>
	<path d="M140.029,125.809c-0.475-0.476-1.325-0.44-1.758,0.073l-7.773,9.183l1.201,1.202l9.184-7.773
		c0.254-0.216,0.408-0.53,0.422-0.863c0.014-0.333-0.113-0.659-0.349-0.895L140.029,125.809z M140.559,128.111l-8.832,7.477
		l-0.551-0.551l7.476-8.832c0.252-0.299,0.746-0.319,1.023-0.042l0.926,0.926c0.139,0.139,0.211,0.324,0.203,0.521
		C140.796,127.806,140.709,127.984,140.559,128.111z"></path>
	<path d="M135.144,122.517l-1.21-0.502c-0.146-0.06-0.3-0.091-0.457-0.091c-0.522,0-0.98,0.334-1.14,0.832
		l-3.667,11.459l1.569,0.65l5.51-10.695c0.153-0.296,0.174-0.646,0.06-0.958C135.695,122.897,135.453,122.645,135.144,122.517z
		 M135.306,123.94l-5.299,10.287l-0.72-0.298l3.527-11.021c0.12-0.376,0.557-0.583,0.929-0.431l1.21,0.501
		c0.182,0.076,0.32,0.219,0.387,0.404C135.408,123.567,135.395,123.765,135.306,123.94z"></path>
	<path d="M128.162,42.343h-1.31c-0.333,0-0.654,0.141-0.88,0.386c-0.226,0.245-0.339,0.576-0.312,0.908l0.997,11.99
		h1.699l0.997-11.99c0.028-0.332-0.086-0.663-0.312-0.908C128.816,42.483,128.495,42.343,128.162,42.343z M127.896,55.127h-0.779
		l-0.959-11.531c-0.016-0.196,0.048-0.384,0.181-0.529c0.133-0.145,0.315-0.225,0.512-0.225h1.31c0.197,0,0.379,0.08,0.512,0.225
		c0.133,0.145,0.197,0.333,0.181,0.529L127.896,55.127z"></path>
	<path d="M121.528,43.377c-0.157,0-0.311,0.031-0.457,0.091l-1.21,0.501c-0.308,0.127-0.55,0.38-0.665,0.693
		c-0.115,0.313-0.093,0.663,0.06,0.959l5.51,10.696l1.569-0.651l-3.667-11.458C122.508,43.711,122.05,43.377,121.528,43.377z
		 M124.998,55.68l-5.299-10.286c-0.09-0.175-0.102-0.374-0.034-0.559c0.067-0.185,0.205-0.328,0.387-0.403l1.21-0.501
		c0.085-0.036,0.175-0.053,0.266-0.053c0.304,0,0.57,0.194,0.663,0.484l3.527,11.02L124.998,55.68z"></path>
	<path d="M114.95,47.222l-0.926,0.926c-0.236,0.236-0.363,0.563-0.349,0.896c0.014,0.333,0.167,0.647,0.422,0.862
		l9.184,7.773l1.201-1.201l-7.773-9.184C116.273,46.783,115.424,46.748,114.95,47.222z M123.251,57.001l-8.832-7.476
		c-0.15-0.127-0.237-0.305-0.246-0.501c-0.008-0.197,0.064-0.382,0.203-0.521l0.926-0.926c0.131-0.131,0.306-0.204,0.492-0.204
		c0.205,0,0.399,0.09,0.531,0.246l7.476,8.832L123.251,57.001z"></path>
	<path d="M111.837,52.294c-0.486,0-0.92,0.29-1.105,0.739l-0.501,1.21c-0.127,0.308-0.121,0.658,0.02,0.96
		c0.141,0.303,0.403,0.535,0.721,0.636l11.459,3.667l0.65-1.569l-10.695-5.51C112.215,52.34,112.025,52.294,111.837,52.294z
		 M122.143,58.89l-11.021-3.527c-0.188-0.06-0.336-0.191-0.419-0.37c-0.083-0.179-0.086-0.377-0.011-0.559l0.501-1.21
		c0.108-0.261,0.361-0.43,0.644-0.43c0.111,0,0.218,0.026,0.318,0.078l10.287,5.299L122.143,58.89z"></path>
	<path d="M109.057,60.015v1.31c0,0.659,0.536,1.196,1.194,1.196c0.033,0,0.066-0.001,0.1-0.004l11.99-0.997v-1.699
		l-11.99-0.997C109.65,58.763,109.057,59.323,109.057,60.015z M121.842,61.06l-11.531,0.959l-0.059,0.002
		c-0.383,0-0.694-0.312-0.694-0.696v-1.31c0-0.384,0.312-0.696,0.694-0.696l11.59,0.961V61.06z"></path>
	<path d="M110.923,65.51c-0.317,0.102-0.58,0.333-0.72,0.636c-0.141,0.303-0.147,0.653-0.02,0.961l0.501,1.21
		c0.186,0.449,0.62,0.739,1.105,0.739c0.188,0,0.378-0.046,0.546-0.133l10.696-5.51l-0.65-1.569L110.923,65.51z M112.107,68.478
		c-0.354,0.182-0.811,0.011-0.961-0.353l-0.501-1.21c-0.075-0.182-0.071-0.38,0.012-0.559c0.083-0.179,0.231-0.31,0.419-0.37
		l11.021-3.527l0.298,0.72L112.107,68.478z"></path>
	<path d="M114.01,71.469c-0.254,0.215-0.408,0.53-0.422,0.863c-0.014,0.333,0.113,0.66,0.349,0.896l0.926,0.926
		c0.226,0.226,0.526,0.35,0.845,0.35c0.353,0,0.686-0.154,0.913-0.423l7.773-9.184l-1.201-1.201L114.01,71.469z M116.24,73.758
		c-0.251,0.298-0.746,0.319-1.023,0.042l-0.926-0.926c-0.139-0.139-0.211-0.324-0.203-0.521s0.095-0.375,0.246-0.502l8.832-7.476
		l0.551,0.551L116.24,73.758z"></path>
	<path d="M119.142,75.793c-0.153,0.296-0.175,0.646-0.06,0.959c0.115,0.313,0.357,0.565,0.665,0.693l1.21,0.501
		c0.146,0.061,0.3,0.091,0.458,0.091c0.522,0,0.98-0.334,1.139-0.832l3.667-11.459l-1.57-0.65L119.142,75.793z M125.605,66.034
		l-3.527,11.021c-0.12,0.376-0.559,0.585-0.929,0.431l-1.21-0.501c-0.182-0.075-0.319-0.218-0.387-0.403
		c-0.068-0.185-0.056-0.383,0.035-0.558l5.298-10.287L125.605,66.034z"></path>
	<path d="M126.535,65.835l-0.997,11.99c-0.027,0.332,0.086,0.664,0.312,0.909c0.226,0.245,0.546,0.386,0.88,0.386h1.31
		c0.333,0,0.654-0.141,0.88-0.386c0.226-0.245,0.339-0.576,0.312-0.908l-0.997-11.99H126.535z M128.552,78.395
		c-0.133,0.145-0.315,0.225-0.512,0.225h-1.31c-0.197,0-0.378-0.08-0.512-0.225c-0.134-0.145-0.198-0.333-0.182-0.529l0.959-11.531
		h0.779l0.959,11.531C128.749,78.063,128.685,78.25,128.552,78.395z"></path>
	<path d="M130.127,65.145l-1.57,0.65l3.667,11.459c0.16,0.498,0.618,0.832,1.139,0.832c0.157,0,0.311-0.031,0.458-0.091
		l1.21-0.501c0.308-0.127,0.55-0.38,0.665-0.693c0.115-0.313,0.093-0.663-0.06-0.959L130.127,65.145z M135.227,76.627
		c-0.068,0.185-0.205,0.328-0.387,0.403l-1.21,0.501c-0.37,0.154-0.808-0.054-0.929-0.431l-3.527-11.021l0.72-0.298l5.298,10.287
		C135.283,76.245,135.295,76.443,135.227,76.627z"></path>
	<path d="M131.612,63.783l-1.201,1.202l7.773,9.183c0.228,0.269,0.561,0.423,0.913,0.423c0.319,0,0.62-0.124,0.846-0.35
		l0.926-0.926c0.236-0.236,0.363-0.562,0.349-0.895c-0.014-0.333-0.168-0.648-0.422-0.863L131.612,63.783z M140.515,72.96
		l-0.926,0.926c-0.276,0.276-0.771,0.256-1.023-0.042l-7.476-8.832l0.551-0.551l8.832,7.476c0.15,0.127,0.238,0.306,0.246,0.503
		C140.726,72.636,140.654,72.821,140.515,72.96z"></path>
	<path d="M143.922,65.623l-11.459-3.667l-0.65,1.57l10.695,5.509c0.171,0.088,0.355,0.133,0.547,0.133
		c0.485,0,0.919-0.29,1.105-0.738l0.501-1.21c0.127-0.308,0.12-0.658-0.02-0.961S144.239,65.725,143.922,65.623z M144.2,67.028
		l-0.501,1.21c-0.151,0.363-0.605,0.534-0.961,0.352l-10.287-5.298l0.298-0.72l11.021,3.527c0.188,0.06,0.336,0.191,0.419,0.37
		C144.271,66.648,144.275,66.847,144.2,67.028z"></path>
	<path d="M144.54,58.946l-11.99,0.997v1.699l11.99,0.997c0.034,0.003,0.067,0.004,0.1,0.004
		c0.659,0,1.194-0.537,1.194-1.196v-1.31C145.834,59.445,145.241,58.884,144.54,58.946z M145.334,61.448
		c0,0.384-0.312,0.696-0.694,0.696l-11.59-0.961v-0.779l11.531-0.958l0.059-0.003c0.383,0,0.694,0.312,0.694,0.696V61.448z"></path>
	<path d="M144.207,53.146c-0.186-0.448-0.62-0.738-1.105-0.738c-0.188,0-0.378,0.046-0.546,0.133L131.86,58.05
		l0.65,1.57l11.459-3.667c0.317-0.102,0.58-0.333,0.72-0.635c0.141-0.303,0.148-0.653,0.021-0.961L144.207,53.146z M144.235,55.107
		c-0.083,0.178-0.232,0.31-0.419,0.369l-11.021,3.527l-0.298-0.72l10.287-5.298c0.354-0.181,0.81-0.011,0.961,0.352l0.501,1.21
		C144.322,54.729,144.318,54.928,144.235,55.107z"></path>
	<path d="M140.029,47.309c-0.475-0.476-1.325-0.44-1.758,0.073l-7.773,9.183l1.201,1.202l9.184-7.773
		c0.254-0.216,0.408-0.53,0.422-0.863c0.014-0.333-0.113-0.659-0.349-0.895L140.029,47.309z M140.559,49.611l-8.832,7.477
		l-0.551-0.551l7.476-8.832c0.252-0.299,0.746-0.319,1.023-0.042l0.926,0.926c0.139,0.139,0.211,0.324,0.203,0.521
		C140.796,49.306,140.709,49.484,140.559,49.611z"></path>
	<path d="M135.144,44.017l-1.21-0.501c-0.146-0.061-0.3-0.091-0.457-0.091c-0.522,0-0.98,0.334-1.14,0.832
		l-3.667,11.459l1.569,0.65l5.51-10.695c0.153-0.296,0.174-0.645,0.06-0.958C135.695,44.397,135.453,44.145,135.144,44.017z
		 M135.306,45.44l-5.299,10.287l-0.72-0.298l3.527-11.021c0.12-0.376,0.557-0.583,0.929-0.431l1.21,0.501
		c0.182,0.076,0.32,0.219,0.387,0.404C135.408,45.067,135.395,45.265,135.306,45.44z"></path>
	<path d="M53.162,81.593h-1.31c-0.333,0-0.654,0.141-0.88,0.386c-0.226,0.245-0.339,0.576-0.312,0.908l0.997,11.99
		h1.699l0.997-11.99c0.028-0.332-0.086-0.663-0.312-0.908C53.816,81.733,53.495,81.593,53.162,81.593z M52.896,94.377h-0.779
		l-0.959-11.531c-0.016-0.196,0.048-0.384,0.181-0.529c0.133-0.145,0.315-0.225,0.512-0.225h1.31c0.197,0,0.379,0.08,0.512,0.225
		c0.133,0.145,0.197,0.333,0.181,0.529L52.896,94.377z"></path>
	<path d="M46.528,82.627c-0.157,0-0.311,0.031-0.457,0.091l-1.21,0.501c-0.308,0.127-0.55,0.38-0.665,0.693
		c-0.115,0.313-0.093,0.663,0.06,0.959l5.51,10.696l1.569-0.651l-3.667-11.458C47.508,82.961,47.05,82.627,46.528,82.627z
		 M49.998,94.93l-5.299-10.286c-0.09-0.175-0.102-0.374-0.034-0.559c0.067-0.185,0.205-0.328,0.387-0.403l1.21-0.501
		c0.085-0.036,0.175-0.053,0.266-0.053c0.304,0,0.57,0.194,0.663,0.484l3.527,11.02L49.998,94.93z"></path>
	<path d="M39.95,86.472l-0.926,0.926c-0.236,0.236-0.363,0.563-0.349,0.896c0.014,0.333,0.167,0.647,0.422,0.862
		l9.184,7.773l1.201-1.201l-7.773-9.184C41.273,86.033,40.424,85.998,39.95,86.472z M48.251,96.251l-8.832-7.476
		c-0.15-0.127-0.237-0.305-0.246-0.501c-0.008-0.197,0.064-0.382,0.203-0.521l0.926-0.926c0.131-0.131,0.306-0.204,0.492-0.204
		c0.205,0,0.399,0.09,0.531,0.246l7.476,8.832L48.251,96.251z"></path>
	<path d="M36.837,91.544c-0.486,0-0.92,0.29-1.105,0.739l-0.501,1.21c-0.127,0.308-0.121,0.658,0.02,0.96
		c0.141,0.303,0.403,0.535,0.721,0.636l11.459,3.667l0.65-1.569l-10.695-5.51C37.215,91.59,37.025,91.544,36.837,91.544z
		 M47.143,98.14l-11.021-3.527c-0.188-0.06-0.336-0.191-0.419-0.37c-0.083-0.179-0.086-0.377-0.011-0.559l0.501-1.21
		c0.108-0.261,0.361-0.43,0.644-0.43c0.111,0,0.218,0.026,0.318,0.078l10.287,5.299L47.143,98.14z"></path>
	<path d="M34.057,99.265v1.31c0,0.659,0.536,1.196,1.194,1.196c0.033,0,0.066-0.001,0.1-0.004l11.99-0.997v-1.699
		l-11.99-0.997C34.65,98.013,34.057,98.573,34.057,99.265z M46.842,100.31l-11.531,0.959l-0.059,0.002
		c-0.383,0-0.694-0.312-0.694-0.696v-1.31c0-0.384,0.312-0.696,0.694-0.696l11.59,0.961V100.31z"></path>
	<path d="M35.923,104.76c-0.317,0.102-0.58,0.333-0.72,0.636c-0.141,0.303-0.147,0.653-0.02,0.961l0.501,1.21
		c0.186,0.449,0.62,0.739,1.105,0.739c0.188,0,0.378-0.046,0.546-0.133l10.696-5.51l-0.65-1.569L35.923,104.76z M37.107,107.728
		c-0.354,0.182-0.811,0.011-0.961-0.353l-0.501-1.21c-0.075-0.182-0.071-0.38,0.012-0.559c0.083-0.179,0.231-0.31,0.419-0.37
		l11.021-3.527l0.298,0.72L37.107,107.728z"></path>
	<path d="M39.01,110.719c-0.254,0.215-0.408,0.53-0.422,0.863c-0.014,0.333,0.113,0.66,0.349,0.896l0.926,0.926
		c0.226,0.226,0.526,0.35,0.845,0.35c0.353,0,0.686-0.154,0.913-0.423l7.773-9.184l-1.201-1.201L39.01,110.719z M41.24,113.008
		c-0.251,0.298-0.746,0.319-1.023,0.042l-0.926-0.926c-0.139-0.139-0.211-0.324-0.203-0.521c0.008-0.197,0.095-0.375,0.246-0.502
		l8.832-7.476l0.551,0.551L41.24,113.008z"></path>
	<path d="M44.142,115.043c-0.153,0.296-0.175,0.646-0.06,0.959c0.115,0.313,0.357,0.565,0.665,0.693l1.211,0.501
		c0.146,0.061,0.3,0.091,0.458,0.091c0.522,0,0.98-0.334,1.139-0.832l3.667-11.459l-1.57-0.65L44.142,115.043z M50.605,105.284
		l-3.527,11.021c-0.12,0.376-0.559,0.585-0.929,0.431l-1.21-0.501c-0.182-0.075-0.319-0.218-0.387-0.403
		c-0.068-0.185-0.056-0.383,0.035-0.558l5.298-10.287L50.605,105.284z"></path>
	<path d="M51.535,105.085l-0.997,11.99c-0.027,0.332,0.086,0.664,0.312,0.909c0.226,0.245,0.546,0.386,0.88,0.386h1.31
		c0.333,0,0.654-0.141,0.88-0.386c0.226-0.245,0.339-0.576,0.312-0.908l-0.997-11.99H51.535z M53.552,117.645
		c-0.133,0.145-0.315,0.225-0.512,0.225h-1.31c-0.197,0-0.378-0.08-0.512-0.225c-0.134-0.145-0.198-0.333-0.182-0.529l0.959-11.531
		h0.779l0.959,11.531C53.749,117.313,53.685,117.5,53.552,117.645z"></path>
	<path d="M55.127,104.395l-1.57,0.65l3.667,11.459c0.16,0.498,0.618,0.832,1.139,0.832c0.157,0,0.311-0.031,0.458-0.091
		l1.21-0.501c0.308-0.127,0.55-0.38,0.665-0.693c0.115-0.313,0.093-0.663-0.06-0.959L55.127,104.395z M60.227,115.877
		c-0.068,0.185-0.205,0.328-0.387,0.403l-1.21,0.501c-0.37,0.154-0.808-0.054-0.929-0.431l-3.527-11.021l0.72-0.298l5.298,10.287
		C60.283,115.495,60.295,115.693,60.227,115.877z"></path>
	<path d="M56.612,103.033l-1.201,1.202l7.773,9.183c0.228,0.269,0.561,0.423,0.913,0.423c0.319,0,0.62-0.124,0.846-0.35
		l0.926-0.926c0.236-0.236,0.363-0.562,0.349-0.895c-0.014-0.333-0.168-0.648-0.422-0.863L56.612,103.033z M65.515,112.21
		l-0.926,0.926c-0.276,0.276-0.771,0.256-1.023-0.042l-7.476-8.832l0.551-0.551l8.832,7.476c0.15,0.127,0.238,0.306,0.246,0.502
		C65.726,111.886,65.654,112.071,65.515,112.21z"></path>
	<path d="M68.922,104.873l-11.459-3.667l-0.65,1.57l10.695,5.509c0.171,0.088,0.355,0.133,0.547,0.133
		c0.485,0,0.919-0.29,1.105-0.738l0.501-1.21c0.127-0.308,0.12-0.658-0.02-0.96S69.239,104.975,68.922,104.873z M69.2,106.278
		l-0.501,1.211c-0.151,0.363-0.605,0.534-0.961,0.352l-10.287-5.298l0.298-0.72l11.021,3.527c0.188,0.06,0.336,0.191,0.419,0.37
		C69.271,105.898,69.275,106.097,69.2,106.278z"></path>
	<path d="M69.54,98.196l-11.99,0.997v1.699l11.99,0.997c0.034,0.003,0.067,0.004,0.1,0.004
		c0.659,0,1.194-0.537,1.194-1.196v-1.31C70.834,98.695,70.241,98.134,69.54,98.196z M70.334,100.698
		c0,0.384-0.312,0.696-0.694,0.696l-11.59-0.961v-0.779l11.531-0.958l0.059-0.002c0.383,0,0.694,0.312,0.694,0.696V100.698z"></path>
	<path d="M69.207,92.396c-0.186-0.448-0.62-0.738-1.105-0.738c-0.188,0-0.378,0.046-0.546,0.133L56.86,97.3l0.65,1.57
		l11.459-3.667c0.317-0.102,0.58-0.333,0.72-0.635c0.141-0.303,0.148-0.653,0.021-0.961L69.207,92.396z M69.235,94.357
		c-0.083,0.178-0.232,0.31-0.419,0.369l-11.021,3.527l-0.298-0.72l10.287-5.298c0.354-0.181,0.81-0.011,0.961,0.352l0.501,1.21
		C69.322,93.979,69.318,94.178,69.235,94.357z"></path>
	<path d="M65.029,86.559c-0.475-0.476-1.325-0.44-1.758,0.073l-7.773,9.183l1.201,1.202l9.184-7.773
		c0.254-0.216,0.408-0.53,0.422-0.863s-0.113-0.659-0.349-0.895L65.029,86.559z M65.559,88.861l-8.832,7.477l-0.551-0.551
		l7.476-8.832c0.252-0.299,0.746-0.319,1.023-0.043l0.926,0.926c0.139,0.139,0.211,0.324,0.203,0.521
		C65.796,88.556,65.709,88.734,65.559,88.861z"></path>
	<path d="M60.144,83.267l-1.21-0.501c-0.146-0.061-0.3-0.091-0.457-0.091c-0.522,0-0.98,0.334-1.14,0.832l-3.667,11.459
		l1.569,0.65l5.51-10.695c0.153-0.296,0.174-0.646,0.06-0.958C60.695,83.647,60.453,83.395,60.144,83.267z M60.306,84.69
		l-5.299,10.287l-0.72-0.298l3.527-11.021c0.12-0.376,0.557-0.583,0.929-0.431l1.21,0.501c0.182,0.076,0.32,0.219,0.387,0.404
		C60.408,84.317,60.395,84.515,60.306,84.69z"></path>
	<path d="M53.162,3.093h-1.31c-0.333,0-0.654,0.141-0.88,0.386c-0.226,0.245-0.339,0.576-0.312,0.908l0.997,11.99h1.699
		l0.997-11.99c0.028-0.332-0.086-0.663-0.312-0.908C53.816,3.233,53.495,3.093,53.162,3.093z M52.896,15.877h-0.779L51.159,4.346
		c-0.016-0.196,0.048-0.384,0.181-0.529c0.133-0.145,0.315-0.225,0.512-0.225h1.31c0.197,0,0.379,0.08,0.512,0.225
		c0.133,0.144,0.197,0.333,0.181,0.529L52.896,15.877z"></path>
	<path d="M46.528,4.127c-0.157,0-0.311,0.031-0.457,0.091L44.86,4.72c-0.308,0.127-0.55,0.38-0.665,0.693
		c-0.115,0.313-0.093,0.663,0.06,0.959l5.51,10.696l1.569-0.651L47.667,4.959C47.508,4.461,47.05,4.127,46.528,4.127z M49.998,16.43
		L44.699,6.144c-0.09-0.175-0.102-0.374-0.034-0.559c0.067-0.185,0.205-0.328,0.387-0.403l1.21-0.501
		c0.085-0.036,0.175-0.053,0.266-0.053c0.304,0,0.57,0.194,0.663,0.484l3.527,11.02L49.998,16.43z"></path>
	<path d="M39.95,7.972l-0.926,0.926c-0.236,0.236-0.363,0.563-0.349,0.896c0.014,0.333,0.167,0.647,0.422,0.862
		l9.184,7.773l1.201-1.201l-7.773-9.184C41.273,7.533,40.424,7.498,39.95,7.972z M48.251,17.751l-8.832-7.476
		c-0.15-0.127-0.237-0.305-0.246-0.501c-0.008-0.197,0.064-0.382,0.203-0.521l0.926-0.926c0.131-0.131,0.306-0.204,0.492-0.204
		c0.205,0,0.399,0.09,0.531,0.246l7.476,8.832L48.251,17.751z"></path>
	<path d="M36.837,13.044c-0.486,0-0.92,0.29-1.105,0.739l-0.501,1.211c-0.127,0.308-0.121,0.658,0.02,0.96
		c0.141,0.303,0.403,0.535,0.721,0.636l11.459,3.667l0.65-1.569l-10.695-5.51C37.215,13.09,37.025,13.044,36.837,13.044z
		 M47.143,19.64l-11.021-3.527c-0.188-0.06-0.336-0.191-0.419-0.37c-0.083-0.179-0.086-0.377-0.011-0.559l0.501-1.21
		c0.108-0.261,0.361-0.43,0.644-0.43c0.111,0,0.218,0.026,0.318,0.078l10.287,5.299L47.143,19.64z"></path>
	<path d="M34.057,20.765v1.31c0,0.659,0.536,1.196,1.194,1.196c0.033,0,0.066-0.001,0.1-0.004l11.99-0.997v-1.699
		l-11.99-0.997C34.65,19.513,34.057,20.073,34.057,20.765z M46.842,21.81l-11.531,0.959l-0.059,0.003
		c-0.383,0-0.694-0.312-0.694-0.696v-1.31c0-0.384,0.312-0.696,0.694-0.696l11.59,0.961V21.81z"></path>
	<path d="M35.923,26.26c-0.317,0.102-0.58,0.333-0.72,0.636c-0.141,0.303-0.147,0.653-0.02,0.961l0.501,1.21
		c0.186,0.449,0.62,0.739,1.105,0.739c0.188,0,0.378-0.046,0.546-0.133l10.696-5.51l-0.65-1.569L35.923,26.26z M37.107,29.228
		c-0.354,0.182-0.811,0.011-0.961-0.352l-0.501-1.21c-0.075-0.182-0.071-0.38,0.012-0.559c0.083-0.179,0.231-0.31,0.419-0.37
		l11.021-3.527l0.298,0.72L37.107,29.228z"></path>
	<path d="M39.01,32.219c-0.254,0.215-0.408,0.53-0.422,0.863c-0.014,0.334,0.113,0.66,0.349,0.896l0.926,0.926
		c0.226,0.226,0.526,0.35,0.845,0.35c0.353,0,0.686-0.154,0.913-0.423l7.773-9.184l-1.201-1.201L39.01,32.219z M41.24,34.508
		c-0.251,0.298-0.746,0.319-1.023,0.043l-0.926-0.926c-0.139-0.139-0.211-0.324-0.203-0.521c0.008-0.197,0.095-0.375,0.246-0.502
		l8.832-7.476l0.551,0.551L41.24,34.508z"></path>
	<path d="M44.142,36.543c-0.153,0.296-0.175,0.646-0.06,0.96c0.115,0.313,0.357,0.565,0.665,0.693l1.211,0.501
		c0.146,0.061,0.3,0.091,0.458,0.091c0.522,0,0.98-0.334,1.139-0.831l3.667-11.459l-1.57-0.65L44.142,36.543z M50.605,26.784
		l-3.527,11.02c-0.12,0.377-0.559,0.585-0.929,0.431l-1.21-0.501c-0.182-0.075-0.319-0.218-0.387-0.403
		c-0.068-0.185-0.056-0.383,0.035-0.558l5.298-10.287L50.605,26.784z"></path>
	<path d="M51.535,26.585l-0.997,11.99c-0.027,0.332,0.086,0.664,0.312,0.909c0.226,0.245,0.546,0.386,0.88,0.386h1.31
		c0.333,0,0.654-0.141,0.88-0.386c0.226-0.245,0.339-0.576,0.312-0.908l-0.997-11.99H51.535z M53.552,39.145
		c-0.133,0.145-0.315,0.225-0.512,0.225h-1.31c-0.197,0-0.378-0.08-0.512-0.225c-0.134-0.145-0.198-0.333-0.182-0.529l0.959-11.531
		h0.779l0.959,11.531C53.749,38.813,53.685,39,53.552,39.145z"></path>
	<path d="M55.127,25.895l-1.57,0.65l3.667,11.459c0.16,0.498,0.618,0.832,1.139,0.832c0.157,0,0.311-0.031,0.458-0.091
		l1.21-0.501c0.308-0.127,0.55-0.38,0.665-0.693c0.115-0.313,0.093-0.663-0.06-0.959L55.127,25.895z M60.227,37.377
		c-0.068,0.185-0.205,0.328-0.387,0.403l-1.21,0.501c-0.37,0.154-0.808-0.054-0.929-0.431l-3.527-11.021l0.72-0.298l5.298,10.287
		C60.283,36.995,60.295,37.193,60.227,37.377z"></path>
	<path d="M56.612,24.533l-1.201,1.202l7.773,9.183c0.228,0.269,0.561,0.423,0.913,0.423c0.319,0,0.62-0.124,0.846-0.35
		l0.926-0.926c0.236-0.236,0.363-0.562,0.349-0.895c-0.014-0.333-0.168-0.648-0.422-0.863L56.612,24.533z M65.515,33.71
		l-0.926,0.926c-0.276,0.276-0.771,0.256-1.023-0.042l-7.476-8.832l0.551-0.551l8.832,7.476c0.15,0.127,0.238,0.306,0.246,0.502
		C65.726,33.386,65.654,33.571,65.515,33.71z"></path>
	<path d="M68.922,26.373l-11.459-3.667l-0.65,1.57l10.695,5.509c0.171,0.088,0.355,0.133,0.547,0.133
		c0.485,0,0.919-0.29,1.105-0.738l0.501-1.211c0.127-0.308,0.12-0.658-0.02-0.96S69.239,26.475,68.922,26.373z M69.2,27.778
		l-0.501,1.21c-0.151,0.363-0.605,0.534-0.961,0.352l-10.287-5.298l0.298-0.72l11.021,3.527c0.188,0.06,0.336,0.191,0.419,0.37
		C69.271,27.398,69.275,27.597,69.2,27.778z"></path>
	<path d="M69.54,19.696l-11.99,0.997v1.699l11.99,0.997c0.034,0.003,0.067,0.004,0.1,0.004
		c0.659,0,1.194-0.537,1.194-1.196v-1.31C70.834,20.195,70.241,19.634,69.54,19.696z M70.334,22.198
		c0,0.384-0.312,0.696-0.694,0.696l-11.59-0.961v-0.779l11.531-0.958l0.059-0.002c0.383,0,0.694,0.312,0.694,0.696V22.198z"></path>
	<path d="M69.207,13.896c-0.186-0.448-0.62-0.738-1.105-0.738c-0.188,0-0.378,0.046-0.546,0.133L56.86,18.8l0.65,1.57
		l11.459-3.667c0.317-0.102,0.58-0.333,0.72-0.635c0.141-0.303,0.148-0.653,0.021-0.961L69.207,13.896z M69.235,15.857
		c-0.083,0.178-0.232,0.31-0.419,0.369l-11.021,3.527l-0.298-0.72l10.287-5.298c0.354-0.181,0.81-0.011,0.961,0.352l0.501,1.211
		C69.322,15.479,69.318,15.678,69.235,15.857z"></path>
	<path d="M65.029,8.059c-0.475-0.476-1.325-0.44-1.758,0.073l-7.773,9.183l1.201,1.202l9.184-7.773
		c0.254-0.216,0.408-0.53,0.422-0.863c0.014-0.333-0.113-0.659-0.349-0.895L65.029,8.059z M65.559,10.361l-8.832,7.477l-0.551-0.551
		l7.476-8.832c0.252-0.299,0.746-0.319,1.023-0.042l0.926,0.926c0.139,0.139,0.211,0.324,0.203,0.521
		C65.796,10.056,65.709,10.234,65.559,10.361z"></path>
	<path d="M60.144,4.767l-1.21-0.501c-0.146-0.061-0.3-0.091-0.457-0.091c-0.522,0-0.98,0.334-1.14,0.832l-3.667,11.459
		l1.569,0.65l5.51-10.695c0.153-0.296,0.174-0.646,0.06-0.958C60.695,5.147,60.453,4.895,60.144,4.767z M60.306,6.19l-5.299,10.287
		l-0.72-0.298l3.527-11.02c0.12-0.376,0.557-0.583,0.929-0.431l1.21,0.501c0.182,0.076,0.32,0.219,0.387,0.404
		C60.408,5.817,60.395,6.015,60.306,6.19z"></path>
</g>
</g></pattern></defs><rect width="100%" height="100%" id="RctSolidBackground1" fill="url(#pattern-571-layer-1)"></rect></svg>